<svg xmlns="http://www.w3.org/2000/svg" width="20" height="20" viewBox="0 0 20 20" fill="none">
  <path d="M6.17001 0.76C7.38508 0.259948 8.68606 0.00179152 10 0C11.31 0 12.61 0.26 13.83 0.76C15.04 1.26 16.14 2 17.07 2.93C18 3.86 18.74 4.96 19.24 6.17C19.74 7.39 20 8.69 20 10C20 12.65 18.95 15.2 17.07 17.07C16.1426 18 15.0406 18.7376 13.8273 19.2404C12.614 19.7432 11.3134 20.0014 10 20C8.68606 19.9982 7.38508 19.7401 6.17001 19.24C4.95807 18.7363 3.85714 17.9989 2.93001 17.07C2.00002 16.1426 1.26244 15.0406 0.759617 13.8273C0.256795 12.614 -0.00135141 11.3134 5.32016e-06 10C5.32016e-06 7.35 1.05001 4.8 2.93001 2.93C3.86001 2 4.96001 1.26 6.17001 0.76ZM9.54415 14.007C9.72274 14.396 10.2758 14.3954 10.4535 14.0059L10.7881 13.2723C11.286 12.1806 12.1599 11.3045 13.2503 10.8037L14.0044 10.4573C14.3939 10.2784 14.3926 9.72453 14.0023 9.54753L13.2722 9.21645C12.1685 8.71592 11.2841 7.83156 10.7836 6.72783L10.4539 6.00093C10.2767 5.61012 9.72186 5.60945 9.54369 5.99983L9.20643 6.7388C8.70575 7.83582 7.82547 8.71495 6.72778 9.21419L5.99436 9.54776C5.60473 9.72497 5.60339 10.2779 5.99217 10.457L6.7497 10.806C7.83398 11.3054 8.70378 12.1764 9.20184 13.2613L9.54415 14.007Z" fill="var(--primary-default, #4051FD)"/>
</svg>
